<svg xmlns="http://www.w3.org/2000/svg">
  <symbol id="i-asterisk" viewBox="0 0 24 24" fill="none" stroke="currentColor" stroke-width="2.4" stroke-linecap="round"><path d="M12 3v18M4.2 7.5l15.6 9M4.2 16.5l15.6-9"/></symbol>
  <symbol id="i-arrow" viewBox="0 0 24 24" fill="none" stroke="currentColor" stroke-width="1.8" stroke-linecap="round" stroke-linejoin="round"><path d="M7 17L17 7M8 7h9v9"/></symbol>
  <symbol id="i-arrow-up" viewBox="0 0 24 24" fill="none" stroke="currentColor" stroke-width="1.8" stroke-linecap="round" stroke-linejoin="round"><path d="M12 19V5M5.5 11.5L12 5l6.5 6.5"/></symbol>
  <symbol id="i-arrow-left" viewBox="0 0 24 24" fill="none" stroke="currentColor" stroke-width="1.8" stroke-linecap="round" stroke-linejoin="round"><path d="M19 12H5M11.5 5.5L5 12l6.5 6.5"/></symbol>
  <symbol id="i-arrow-right" viewBox="0 0 24 24" fill="none" stroke="currentColor" stroke-width="1.8" stroke-linecap="round" stroke-linejoin="round"><path d="M5 12h14M12.5 5.5L19 12l-6.5 6.5"/></symbol>
  <symbol id="i-chevron" viewBox="0 0 24 24" fill="none" stroke="currentColor" stroke-width="2" stroke-linecap="round" stroke-linejoin="round"><path d="M6 9.5l6 6 6-6"/></symbol>
  <symbol id="i-check" viewBox="0 0 24 24" fill="none" stroke="currentColor" stroke-width="2.2" stroke-linecap="round" stroke-linejoin="round"><path d="M5 12.5l4.5 4.5L19 7.5"/></symbol>
  <symbol id="i-trash" viewBox="0 0 24 24" fill="none" stroke="currentColor" stroke-width="1.8" stroke-linecap="round" stroke-linejoin="round"><path d="M4 7h16M10 11v6M14 11v6M6 7l1 12a2 2 0 002 2h6a2 2 0 002-2l1-12M9 7V4h6v3"/></symbol>
  <symbol id="i-copy" viewBox="0 0 24 24" fill="none" stroke="currentColor" stroke-width="1.8" stroke-linecap="round" stroke-linejoin="round"><rect x="8" y="8" width="12" height="12" rx="2.5"/><path d="M16 8V6a2 2 0 00-2-2H6a2 2 0 00-2 2v8a2 2 0 002 2h2"/></symbol>
  <symbol id="i-play" viewBox="0 0 24 24" fill="currentColor"><path d="M8 5.5v13l10.5-6.5z"/></symbol>
  <symbol id="i-pause" viewBox="0 0 24 24" fill="none" stroke="currentColor" stroke-width="2.4" stroke-linecap="round"><path d="M8.5 5.5v13M15.5 5.5v13"/></symbol>
  <symbol id="i-refresh" viewBox="0 0 24 24" fill="none" stroke="currentColor" stroke-width="1.8" stroke-linecap="round" stroke-linejoin="round"><path d="M20 11a8 8 0 10-2.3 5.7M20 4v7h-7"/></symbol>
  <symbol id="i-minus" viewBox="0 0 24 24" fill="none" stroke="currentColor" stroke-width="2" stroke-linecap="round"><path d="M5 12h14"/></symbol>
  <symbol id="i-plus" viewBox="0 0 24 24" fill="none" stroke="currentColor" stroke-width="2" stroke-linecap="round"><path d="M12 5v14M5 12h14"/></symbol>
  <symbol id="i-close" viewBox="0 0 24 24" fill="none" stroke="currentColor" stroke-width="1.8" stroke-linecap="round"><path d="M6 6l12 12M18 6L6 18"/></symbol>
  <symbol id="i-home" viewBox="0 0 24 24" fill="none" stroke="currentColor" stroke-width="1.8" stroke-linecap="round" stroke-linejoin="round"><path d="M4 11l8-7 8 7v8.5a1.5 1.5 0 01-1.5 1.5H15v-6H9v6H5.5A1.5 1.5 0 014 19.5z"/></symbol>
  <symbol id="i-search" viewBox="0 0 24 24" fill="none" stroke="currentColor" stroke-width="1.8" stroke-linecap="round"><circle cx="11" cy="11" r="6.5"/><path d="M20 20l-4.2-4.2"/></symbol>
  <symbol id="i-inbox" viewBox="0 0 24 24" fill="none" stroke="currentColor" stroke-width="1.8" stroke-linecap="round" stroke-linejoin="round"><path d="M3.5 13.5l2.6-7.6A2 2 0 018 4.5h8a2 2 0 011.9 1.4l2.6 7.6v5a1.5 1.5 0 01-1.5 1.5H5a1.5 1.5 0 01-1.5-1.5z"/><path d="M3.5 13.5H8l1.5 2.5h5l1.5-2.5h4.5"/></symbol>
  <symbol id="i-user" viewBox="0 0 24 24" fill="none" stroke="currentColor" stroke-width="1.8" stroke-linecap="round"><circle cx="12" cy="8.5" r="4"/><path d="M4.5 20.5c1.2-3.6 4.1-5.5 7.5-5.5s6.3 1.9 7.5 5.5"/></symbol>
  <symbol id="i-heart-fill" viewBox="0 0 24 24"><path d="M12 20.5s-7.5-4.4-9.5-9.2C1.2 8 3 4.5 6.6 4.1c2-.2 3.7.8 5.4 2.8 1.7-2 3.4-3 5.4-2.8C21 4.5 22.8 8 21.5 11.3c-2 4.8-9.5 9.2-9.5 9.2z"/></symbol>
  <symbol id="i-clock" viewBox="0 0 24 24" fill="none" stroke="currentColor" stroke-width="1.8" stroke-linecap="round" stroke-linejoin="round"><circle cx="12" cy="12" r="8.5"/><path d="M12 7.5V12l3 2"/></symbol>
  <symbol id="i-book" viewBox="0 0 24 24" fill="none" stroke="currentColor" stroke-width="1.8" stroke-linecap="round" stroke-linejoin="round"><path d="M4 5.5A1.5 1.5 0 015.5 4H11v15H5.5A1.5 1.5 0 004 20.5zM20 5.5A1.5 1.5 0 0018.5 4H13v15h5.5a1.5 1.5 0 011.5 1.5z"/></symbol>
  <symbol id="i-eye" viewBox="0 0 24 24" fill="none" stroke="currentColor" stroke-width="1.8" stroke-linecap="round" stroke-linejoin="round"><path d="M2.5 12S6 5.5 12 5.5 21.5 12 21.5 12 18 18.5 12 18.5 2.5 12 2.5 12z"/><circle cx="12" cy="12" r="3"/></symbol>
  <symbol id="i-eye-off" viewBox="0 0 24 24" fill="none" stroke="currentColor" stroke-width="1.8" stroke-linecap="round" stroke-linejoin="round"><path d="M4 4l16 16M9.9 5.8A9.6 9.6 0 0112 5.5c6 0 9.5 6.5 9.5 6.5a16 16 0 01-3 3.7M6.3 7.4A15.7 15.7 0 002.5 12S6 18.5 12 18.5a9 9 0 004.1-1"/><path d="M9.9 9.9a3 3 0 004.2 4.2"/></symbol>
  <symbol id="i-archive" viewBox="0 0 24 24" fill="none" stroke="currentColor" stroke-width="1.8" stroke-linecap="round" stroke-linejoin="round"><rect x="3.5" y="4" width="17" height="4.5" rx="1.2"/><path d="M5 8.5V19a1.5 1.5 0 001.5 1.5h11A1.5 1.5 0 0019 19V8.5M10 12.5h4"/></symbol>
  <symbol id="i-grip" viewBox="0 0 24 24" fill="currentColor"><circle cx="9" cy="6.5" r="1.5"/><circle cx="15" cy="6.5" r="1.5"/><circle cx="9" cy="12" r="1.5"/><circle cx="15" cy="12" r="1.5"/><circle cx="9" cy="17.5" r="1.5"/><circle cx="15" cy="17.5" r="1.5"/></symbol>
  <symbol id="i-upload" viewBox="0 0 24 24" fill="none" stroke="currentColor" stroke-width="1.8" stroke-linecap="round" stroke-linejoin="round"><path d="M12 15V4M7 8.5L12 4l5 4.5M4.5 15v3.5A1.5 1.5 0 006 20h12a1.5 1.5 0 001.5-1.5V15"/></symbol>
  <symbol id="i-download" viewBox="0 0 24 24" fill="none" stroke="currentColor" stroke-width="1.8" stroke-linecap="round" stroke-linejoin="round"><path d="M12 4v11M7 10.5L12 15l5-4.5M4.5 15v3.5A1.5 1.5 0 006 20h12a1.5 1.5 0 001.5-1.5V15"/></symbol>
  <symbol id="i-file" viewBox="0 0 24 24" fill="none" stroke="currentColor" stroke-width="1.8" stroke-linecap="round" stroke-linejoin="round"><path d="M13.5 3.5H7A1.5 1.5 0 005.5 5v14A1.5 1.5 0 007 20.5h10a1.5 1.5 0 001.5-1.5V8.5z"/><path d="M13.5 3.5v5h5"/></symbol>
  <symbol id="i-bell" viewBox="0 0 24 24" fill="none" stroke="currentColor" stroke-width="1.8" stroke-linecap="round" stroke-linejoin="round"><path d="M6 16v-5a6 6 0 1112 0v5l1.5 2h-15zM10 20.5a2 2 0 004 0"/></symbol>
  <symbol id="i-star" viewBox="0 0 24 24" fill="none" stroke="currentColor" stroke-width="1.8" stroke-linejoin="round"><path d="M12 3.2l2.7 5.6 6.1.8-4.5 4.2 1.1 6.1L12 17l-5.4 2.9 1.1-6.1-4.5-4.2 6.1-.8z"/></symbol>
  <symbol id="i-sun" viewBox="0 0 24 24" fill="none" stroke="currentColor" stroke-width="1.8" stroke-linecap="round"><circle cx="12" cy="12" r="4.2"/><path d="M12 2.5v2.2M12 19.3v2.2M2.5 12h2.2M19.3 12h2.2M5.3 5.3l1.6 1.6M17.1 17.1l1.6 1.6M5.3 18.7l1.6-1.6M17.1 6.9l1.6-1.6"/></symbol>
  <symbol id="i-moon" viewBox="0 0 24 24" fill="none" stroke="currentColor" stroke-width="1.8" stroke-linejoin="round"><path d="M20 14.5A8 8 0 019.5 4a8 8 0 1010.5 10.5z"/></symbol>
  <symbol id="i-bolt" viewBox="0 0 24 24" fill="none" stroke="currentColor" stroke-width="1.8" stroke-linejoin="round"><path d="M13 2.5L5 13.5h6l-1 8 8-11h-6z"/></symbol>
  <symbol id="i-layers" viewBox="0 0 24 24" fill="none" stroke="currentColor" stroke-width="1.8" stroke-linejoin="round"><path d="M12 3.5l9 5-9 5-9-5zM3 13l9 5 9-5"/></symbol>
  <symbol id="i-sparkle" viewBox="0 0 24 24" fill="none" stroke="currentColor" stroke-width="1.8" stroke-linejoin="round"><path d="M12 3c.6 4.6 2.4 6.4 7 7-4.6.6-6.4 2.4-7 7-.6-4.6-2.4-6.4-7-7 4.6-.6 6.4-2.4 7-7zM19 16c.3 2 1 2.7 3 3-2 .3-2.7 1-3 3-.3-2-1-2.7-3-3 2-.3 2.7-1 3-3z"/></symbol>
  <symbol id="i-lock" viewBox="0 0 24 24" fill="none" stroke="currentColor" stroke-width="1.8" stroke-linecap="round" stroke-linejoin="round"><rect x="5" y="10.5" width="14" height="10" rx="2"/><path d="M8 10.5V8a4 4 0 018 0v2.5"/></symbol>
  <symbol id="i-image" viewBox="0 0 24 24" fill="none" stroke="currentColor" stroke-width="1.8" stroke-linecap="round" stroke-linejoin="round"><rect x="3.5" y="4.5" width="17" height="15" rx="2"/><circle cx="9" cy="10" r="1.8"/><path d="M20.5 16l-5-5-9 8.5"/></symbol>
  <symbol id="i-music" viewBox="0 0 24 24" fill="none" stroke="currentColor" stroke-width="1.8" stroke-linecap="round" stroke-linejoin="round"><path d="M9 18V5.5l11-2V16"/><circle cx="6.5" cy="18" r="2.5"/><circle cx="17.5" cy="16" r="2.5"/></symbol>
  <symbol id="i-settings" viewBox="0 0 24 24" fill="none" stroke="currentColor" stroke-width="1.8" stroke-linecap="round" stroke-linejoin="round"><circle cx="12" cy="12" r="3"/><path d="M12 2.5v3M12 18.5v3M2.5 12h3M18.5 12h3M5.3 5.3l2.1 2.1M16.6 16.6l2.1 2.1M5.3 18.7l2.1-2.1M16.6 7.4l2.1-2.1"/></symbol>
  <symbol id="i-folder" viewBox="0 0 24 24" fill="none" stroke="currentColor" stroke-width="1.8" stroke-linejoin="round"><path d="M3.5 6.5A1.5 1.5 0 015 5h4.5l2 2.5H19a1.5 1.5 0 011.5 1.5v9A1.5 1.5 0 0119 19.5H5A1.5 1.5 0 013.5 18z"/></symbol>
  <symbol id="i-mail" viewBox="0 0 24 24" fill="none" stroke="currentColor" stroke-width="1.8" stroke-linecap="round" stroke-linejoin="round"><rect x="3.5" y="5.5" width="17" height="13" rx="2"/><path d="M4 7l8 6 8-6"/></symbol>
  <symbol id="i-bookmark" viewBox="0 0 24 24" fill="none" stroke="currentColor" stroke-width="1.8" stroke-linejoin="round"><path d="M6.5 3.5h11V21L12 17l-5.5 4z"/></symbol>
  <symbol id="i-grid" viewBox="0 0 24 24" fill="none" stroke="currentColor" stroke-width="1.8"><rect x="4" y="4" width="6.5" height="6.5" rx="1.5"/><rect x="13.5" y="4" width="6.5" height="6.5" rx="1.5"/><rect x="4" y="13.5" width="6.5" height="6.5" rx="1.5"/><rect x="13.5" y="13.5" width="6.5" height="6.5" rx="1.5"/></symbol>
  <symbol id="i-sliders" viewBox="0 0 24 24" fill="none" stroke="currentColor" stroke-width="1.8" stroke-linecap="round"><path d="M4 7h9M17 7h3M4 17h3M11 17h9"/><circle cx="15" cy="7" r="2"/><circle cx="9" cy="17" r="2"/></symbol>
  <symbol id="i-send" viewBox="0 0 24 24" fill="none" stroke="currentColor" stroke-width="1.8" stroke-linejoin="round"><path d="M21 3.5L10.5 13.5M21 3.5l-6.5 17-4-7-7-4z"/></symbol>
</svg>
